# xmcd
#
# Track frame offsets:
# 150
# 18073
# 40130
# 61574
# 76763
# 94884
# 111107
# 128744
# 147729
# 163719
# 181172
# 207865
#
# Disc length: 2997 seconds
#
#
# Revision: 10
# Processed by: cddbd v1.5PL3 Copyright (c) Steve Scherf et al.
# Submitted via: FreeRIP 2.60 
#
DISCID=930bb30c
DTITLE=Kenny Chesney - No Shoes, No Shirt, No Problems
DYEAR=2002
DGENRE=Country
TTITLE0=Young
TTITLE1=I Remember
TTITLE2=A Lot Of Things Different
TTITLE3=The Good Stuff
TTITLE4=Big Star
TTITLE5=On The Coast Of Somewhere Beautiful
TTITLE6=Never Gonna Feel That Way Again
TTITLE7=Dreams
TTITLE8=No Shoes, No Shirt, No Problems
TTITLE9=Live Those Songs
TTITLE10=One Step Up
TTITLE11=I Can't Go There (Acoustic Version)
EXTD=
EXTT0=
EXTT1=
EXTT2=
EXTT3=
EXTT4=
EXTT5=
EXTT6=
EXTT7=
EXTT8=
EXTT9=
EXTT10=
EXTT11=
PLAYORDER=
